<svg xmlns="http://www.w3.org/2000/svg" viewBox="0 0 400 400" width="400" height="400">
  <defs>
    <radialGradient id="lightCore" cx="50%" cy="55%" r="35%">
      <stop offset="0%" stop-color="#FFF3CC" stop-opacity="1"/>
      <stop offset="40%" stop-color="#E8B547" stop-opacity="0.85"/>
      <stop offset="100%" stop-color="#E8B547" stop-opacity="0"/>
    </radialGradient>
    <radialGradient id="outerHalo" cx="50%" cy="50%" r="50%">
      <stop offset="0%" stop-color="#E8B547" stop-opacity="0.25"/>
      <stop offset="60%" stop-color="#E8B547" stop-opacity="0.05"/>
      <stop offset="100%" stop-color="#E8B547" stop-opacity="0"/>
    </radialGradient>
    <linearGradient id="shellGrad" x1="0%" y1="0%" x2="0%" y2="100%">
      <stop offset="0%" stop-color="#FFFFFF" stop-opacity="0.95"/>
      <stop offset="100%" stop-color="#E0E0E0" stop-opacity="0.85"/>
    </linearGradient>
    <linearGradient id="sproutGrad" x1="0%" y1="100%" x2="0%" y2="0%">
      <stop offset="0%" stop-color="#7FB069" stop-opacity="1"/>
      <stop offset="100%" stop-color="#A8D982" stop-opacity="1"/>
    </linearGradient>
  </defs>
  <circle cx="200" cy="210" r="170" fill="url(#outerHalo)"/>
  <g stroke="#E8B547" stroke-width="1.5" stroke-linecap="round" opacity="0.4">
    <line x1="200" y1="60" x2="200" y2="100"/>
    <line x1="340" y1="210" x2="300" y2="210"/>
    <line x1="200" y1="360" x2="200" y2="320"/>
    <line x1="60" y1="210" x2="100" y2="210"/>
    <line x1="295" y1="115" x2="270" y2="140"/>
    <line x1="295" y1="305" x2="270" y2="280"/>
    <line x1="105" y1="305" x2="130" y2="280"/>
    <line x1="105" y1="115" x2="130" y2="140"/>
  </g>
  <g stroke="#E8B547" stroke-width="1" stroke-linecap="round" opacity="0.25">
    <line x1="250" y1="75" x2="240" y2="105"/>
    <line x1="150" y1="75" x2="160" y2="105"/>
    <line x1="325" y1="160" x2="295" y2="170"/>
    <line x1="325" y1="260" x2="295" y2="250"/>
    <line x1="75" y1="160" x2="105" y2="170"/>
    <line x1="75" y1="260" x2="105" y2="250"/>
  </g>
  <path d="M 200 240 Q 130 240 130 195 Q 130 145 175 130 Q 195 125 200 145 Z"
        fill="url(#shellGrad)" stroke="#FFFFFF" stroke-width="2" stroke-opacity="0.6"
        transform="rotate(-8 165 185)"/>
  <path d="M 200 240 Q 270 240 270 195 Q 270 145 225 130 Q 205 125 200 145 Z"
        fill="url(#shellGrad)" stroke="#FFFFFF" stroke-width="2" stroke-opacity="0.6"
        transform="rotate(8 235 185)"/>
  <ellipse cx="200" cy="195" rx="55" ry="60" fill="url(#lightCore)"/>
  <ellipse cx="200" cy="190" rx="22" ry="28" fill="#FFF8E1" opacity="0.9"/>
  <ellipse cx="200" cy="185" rx="10" ry="14" fill="#FFFFFF" opacity="1"/>
  <path d="M 200 145 Q 198 120 195 95 Q 192 78 200 70 Q 208 78 205 95 Q 202 120 200 145"
        fill="url(#sproutGrad)" stroke="#5A8A47" stroke-width="1" stroke-opacity="0.4"/>
  <path d="M 200 100 Q 175 92 168 105 Q 178 115 200 110 Z"
        fill="url(#sproutGrad)" stroke="#5A8A47" stroke-width="1" stroke-opacity="0.4"/>
  <path d="M 200 100 Q 225 92 232 105 Q 222 115 200 110 Z"
        fill="url(#sproutGrad)" stroke="#5A8A47" stroke-width="1" stroke-opacity="0.4"/>
  <circle cx="200" cy="72" r="3" fill="#C8E6A0" opacity="0.9"/>
  <path d="M 100 290 Q 200 270 300 290"
        fill="none" stroke="#8B1A1A" stroke-width="2" stroke-opacity="0.4" stroke-linecap="round"/>
  <circle cx="160" cy="310" r="3" fill="#8B1A1A" opacity="0.5"/>
  <circle cx="200" cy="318" r="3" fill="#8B1A1A" opacity="0.6"/>
  <circle cx="240" cy="310" r="3" fill="#8B1A1A" opacity="0.5"/>
</svg>
